<svg width="20" height="20" viewBox="0 0 20 20" fill="none" xmlns="http://www.w3.org/2000/svg">
<g clip-path="url(#clip0)">
<path d="M19.579 1.88559H3.4108C3.1792 1.88559 2.98975 2.07504 2.98975 2.30664V7.66883L17.0103 12.3312H19.579C19.8106 12.3312 20.0001 12.1417 20.0001 11.9102V2.30664C20 2.07504 19.8105 1.88559 19.579 1.88559Z" fill="#BFBFBF"/>
<path d="M19.9999 4.25058H2.98975V6.47507H19.9999V4.25058Z" fill="#4D4D4D"/>
<path opacity="0.1" d="M4.48424 7.66883V2.30664C4.48424 2.07504 4.67369 1.88559 4.90525 1.88559H3.4108C3.1792 1.88559 2.98975 2.07504 2.98975 2.30664V7.66883H4.48424Z" fill="black"/>
<path d="M17.0102 17.6933C17.0102 17.9249 16.8207 18.1144 16.5892 18.1144H0.421016C0.189492 18.1144 0 17.9249 0 17.6933V8.08988C0 7.85828 0.189492 7.66882 0.421016 7.66882H16.5892C16.8207 7.66882 17.0102 7.85828 17.0102 8.08988V17.6933Z" fill="#0079F1"/>
<g opacity="0.1">
<path opacity="0.1" d="M1.15789 17.6933V8.08988C1.15789 7.85828 1.34734 7.66882 1.57895 7.66882H0.421016C0.189492 7.66882 0 7.85831 0 8.08988V17.6933C0 17.9249 0.189492 18.1144 0.421016 18.1144H1.57895C1.34738 18.1144 1.15789 17.9249 1.15789 17.6933Z" fill="black"/>
</g>
<path d="M13.9603 16.7046C14.5944 16.7046 15.1085 16.1831 15.1085 15.5399C15.1085 14.8967 14.5944 14.3753 13.9603 14.3753C13.3262 14.3753 12.8121 14.8967 12.8121 15.5399C12.8121 16.1831 13.3262 16.7046 13.9603 16.7046Z" fill="#E62937"/>
<path d="M13.2204 15.5399C13.2204 16.1831 12.7062 16.7045 12.0722 16.7045C11.4379 16.7045 10.9238 16.1831 10.9238 15.5399C10.9238 14.8967 11.4379 14.3753 12.0722 14.3753C12.7063 14.3753 13.2204 14.8968 13.2204 15.5399Z" fill="#FFCB00"/>
<path d="M15.1088 11.7187H10.9625C10.7934 11.7187 10.6564 11.5816 10.6564 11.4126C10.6564 11.2435 10.7934 11.1064 10.9625 11.1064H15.1088C15.2779 11.1064 15.4149 11.2435 15.4149 11.4126C15.4148 11.5816 15.2779 11.7187 15.1088 11.7187Z" fill="white"/>
<path d="M15.1088 12.7949H12.3087C12.1396 12.7949 12.0026 12.6578 12.0026 12.4887C12.0026 12.3197 12.1396 12.1826 12.3087 12.1826H15.1088C15.2779 12.1826 15.4149 12.3197 15.4149 12.4887C15.4149 12.6578 15.2779 12.7949 15.1088 12.7949Z" fill="white"/>
<path d="M1.90147 14.8459C1.73237 14.8459 1.59534 14.983 1.59534 15.1521V15.9279C1.59534 16.0969 1.73237 16.234 1.90147 16.234C2.07057 16.234 2.2076 16.0969 2.2076 15.9279V15.1521C2.20756 14.983 2.07053 14.8459 1.90147 14.8459Z" fill="#0052AC"/>
<path d="M3.00621 14.8459C2.8371 14.8459 2.70007 14.983 2.70007 15.1521V15.9279C2.70007 16.0969 2.8371 16.234 3.00621 16.234C3.17531 16.234 3.31234 16.0969 3.31234 15.9279V15.1521C3.31234 14.983 3.17531 14.8459 3.00621 14.8459Z" fill="#0052AC"/>
<path d="M4.11082 14.8459C3.94172 14.8459 3.80469 14.983 3.80469 15.1521V15.9279C3.80469 16.0969 3.94172 16.234 4.11082 16.234C4.27992 16.234 4.41695 16.0969 4.41695 15.9279V15.1521C4.41695 14.983 4.27988 14.8459 4.11082 14.8459Z" fill="#0052AC"/>
<path d="M5.21555 14.8459C5.04645 14.8459 4.90942 14.983 4.90942 15.1521V15.9279C4.90942 16.0969 5.04645 16.234 5.21555 16.234C5.38465 16.234 5.52168 16.0969 5.52168 15.9279V15.1521C5.52168 14.983 5.38465 14.8459 5.21555 14.8459Z" fill="#0052AC"/>
<path d="M6.8347 14.8459C6.6656 14.8459 6.52856 14.983 6.52856 15.1521V15.9279C6.52856 16.0969 6.6656 16.234 6.8347 16.234C7.0038 16.234 7.14083 16.0969 7.14083 15.9279V15.1521C7.14083 14.983 7.0038 14.8459 6.8347 14.8459Z" fill="#0052AC"/>
<path d="M7.93943 14.8459C7.77033 14.8459 7.6333 14.983 7.6333 15.1521V15.9279C7.6333 16.0969 7.77033 16.234 7.93943 16.234C8.10854 16.234 8.24557 16.0969 8.24557 15.9279V15.1521C8.24557 14.983 8.1085 14.8459 7.93943 14.8459Z" fill="#0052AC"/>
<path d="M9.04429 14.8459C8.87519 14.8459 8.73816 14.983 8.73816 15.1521V15.9279C8.73816 16.0969 8.87519 16.234 9.04429 16.234C9.21335 16.234 9.35042 16.0969 9.35042 15.9279V15.1521C9.35039 14.983 9.21335 14.8459 9.04429 14.8459Z" fill="#0052AC"/>
<path d="M7.53643 9.63167H1.90147C1.73237 9.63167 1.59534 9.4946 1.59534 9.32554C1.59534 9.15648 1.73237 9.01941 1.90147 9.01941H7.53643C7.70553 9.01941 7.84256 9.15648 7.84256 9.32554C7.84256 9.49464 7.70549 9.63167 7.53643 9.63167Z" fill="#0052AC"/>
<path d="M5.0399 12.7739C5.0399 12.8897 4.94517 12.9845 4.82935 12.9845H2.14841C2.03263 12.9845 1.93787 12.8898 1.93787 12.7739V11.1274C1.93787 11.0116 2.03259 10.9168 2.14841 10.9168H4.82939C4.94517 10.9168 5.03994 11.0116 5.03994 11.1274V12.7739H5.0399Z" fill="white"/>
<path d="M4.82941 10.6107H2.14848C1.86363 10.6107 1.63184 10.8424 1.63184 11.1273V12.7739C1.63184 13.0587 1.86363 13.2905 2.14848 13.2905H4.82945C5.1143 13.2905 5.34609 13.0588 5.34609 12.7739V11.1273C5.34609 10.8425 5.11434 10.6107 4.82941 10.6107ZM4.73383 11.6445H4.3207V11.223H4.73383V11.6445ZM3.26945 11.6445V11.223H3.70848V11.6445H3.26945ZM3.70844 12.2568V12.6783H3.26945V12.2568H3.70844ZM2.65723 11.223V11.6445H2.24402V11.223H2.65723ZM2.24402 12.2568H2.65715V12.6783H2.24402V12.2568ZM4.3207 12.6783V12.2568H4.73383V12.6783H4.3207Z" fill="#D6D5D6"/>
<path d="M6.80007 3.45486H4.27378C4.10468 3.45486 3.96765 3.31779 3.96765 3.14872C3.96765 2.97966 4.10468 2.84259 4.27378 2.84259H6.80007C6.96917 2.84259 7.1062 2.97966 7.1062 3.14872C7.1062 3.31779 6.96913 3.45486 6.80007 3.45486Z" fill="#4D4D4D"/>
</g>
<defs>
<clipPath id="clip0">
<rect width="20" height="20" fill="white"/>
</clipPath>
</defs>
</svg>
